HIERARCHY
ROOT Hips
{
    OFFSET 0.000000 0.000000 0.000000
    CHANNELS 6 Xposition Yposition Zposition Zrotation Xrotation Yrotation
    JOINT Spine
    {
        OFFSET -0.000000 7.284621 0.000000
        CHANNELS 3 Zrotation Xrotation Yrotation
        JOINT Spine1
        {
            OFFSET -0.000000 19.968920 0.000000
            CHANNELS 3 Zrotation Xrotation Yrotation
            JOINT Neck
            {
                OFFSET -0.000000 21.745657 0.000000
                CHANNELS 3 Zrotation Xrotation Yrotation
                JOINT Head
                {
                    OFFSET -0.000000 13.769711 1.776737
                    CHANNELS 3 Zrotation Xrotation Yrotation
                    End Site
                    {
                        OFFSET -0.000000 17.767368 0.000000
                    }
                }
            }
            JOINT LeftShoulder
            {
                OFFSET 3.594505 17.711157 -0.013107
                CHANNELS 3 Zrotation Xrotation Yrotation
                JOINT LeftArm
                {
                    OFFSET 12.210003 0.000000 0.000000
                    CHANNELS 3 Zrotation Xrotation Yrotation
                    JOINT LeftForeArm
                    {
                        OFFSET 24.535166 0.000000 0.000000
                        CHANNELS 3 Zrotation Xrotation Yrotation
                        JOINT LeftHand
                        {
                            OFFSET 20.235195 0.000000 0.000000
                            CHANNELS 3 Zrotation Xrotation Yrotation
                            JOINT LeftHandThumb1
                            {
                                OFFSET 1.906737 -2.166747 3.033446
                                CHANNELS 3 Zrotation Xrotation Yrotation
                                JOINT LeftHandThumb2
                                {
                                    OFFSET 2.043247 0.000000 1.332553
                                    CHANNELS 3 Zrotation Xrotation Yrotation
                                    JOINT LeftHandThumb3
                                    {
                                        OFFSET 2.665105 0.000000 0.000000
                                        CHANNELS 3 Zrotation Xrotation Yrotation
                                        End Site
                                        {
                                            OFFSET 2.367595 0.000000 0.000000
                                        }
                                    }
                                }
                            }
                            JOINT LeftHandIndex1
                            {
                                OFFSET 7.800290 0.000000 3.033446
                                CHANNELS 3 Zrotation Xrotation Yrotation
                                JOINT LeftHandIndex2
                                {
                                    OFFSET 4.441842 0.000000 0.000000
                                    CHANNELS 3 Zrotation Xrotation Yrotation
                                    JOINT LeftHandIndex3
                                    {
                                        OFFSET 2.220921 0.000000 0.000000
                                        CHANNELS 3 Zrotation Xrotation Yrotation
                                        End Site
                                        {
                                            OFFSET 1.972996 0.000000 0.000000
                                        }
                                    }
                                }
                            }
                            JOINT LeftHandMiddle1
                            {
                                OFFSET 7.800290 0.000000 1.005371
                                CHANNELS 3 Zrotation Xrotation Yrotation
                                JOINT LeftHandMiddle2
                                {
                                    OFFSET 4.886026 0.000000 0.000000
                                    CHANNELS 3 Zrotation Xrotation Yrotation
                                    JOINT LeftHandMiddle3
                                    {
                                        OFFSET 2.665105 0.000000 0.000000
                                        CHANNELS 3 Zrotation Xrotation Yrotation
                                        End Site
                                        {
                                            OFFSET 2.367595 0.000000 0.000000
                                        }
                                    }
                                }
                            }
                            JOINT LeftHandRing1
                            {
                                OFFSET 7.366940 0.000000 -1.005371
                                CHANNELS 3 Zrotation Xrotation Yrotation
                                JOINT LeftHandRing2
                                {
                                    OFFSET 4.441842 0.000000 0.000000
                                    CHANNELS 3 Zrotation Xrotation Yrotation
                                    JOINT LeftHandRing3
                                    {
                                        OFFSET 2.220921 0.000000 0.000000
                                        CHANNELS 3 Zrotation Xrotation Yrotation
                                        End Site
                                        {
                                            OFFSET 1.972996 0.000000 0.000000
                                        }
                                    }
                                }
                            }
                            JOINT LeftHandPinky1
                            {
                                OFFSET 6.933591 0.000000 -3.033446
                                CHANNELS 3 Zrotation Xrotation Yrotation
                                JOINT LeftHandPinky2
                                {
                                    OFFSET 3.553473 0.000000 0.000000
                                    CHANNELS 3 Zrotation Xrotation Yrotation
                                    JOINT LeftHandPinky3
                                    {
                                        OFFSET 1.776737 0.000000 0.000000
                                        CHANNELS 3 Zrotation Xrotation Yrotation
                                        End Site
                                        {
                                            OFFSET 1.578397 0.000000 0.000000
                                        }
                                    }
                                }
                            }
                        }
                    }
                }
            }
            JOINT RightShoulder
            {
                OFFSET -3.500468 17.711157 -0.013107
                CHANNELS 3 Zrotation Xrotation Yrotation
                JOINT RightArm
                {
                    OFFSET -12.210003 0.000000 0.000000
                    CHANNELS 3 Zrotation Xrotation Yrotation
                    JOINT RightForeArm
                    {
                        OFFSET -24.535166 0.000000 0.000000
                        CHANNELS 3 Zrotation Xrotation Yrotation
                        JOINT RightHand
                        {
                            OFFSET -20.235195 0.000000 0.000000
                            CHANNELS 3 Zrotation Xrotation Yrotation
                            JOINT RightHandThumb1
                            {
                                OFFSET -1.906737 -2.166747 3.033446
                                CHANNELS 3 Zrotation Xrotation Yrotation
                                JOINT RightHandThumb2
                                {
                                    OFFSET -2.043247 0.000000 1.332553
                                    CHANNELS 3 Zrotation Xrotation Yrotation
                                    JOINT RightHandThumb3
                                    {
                                        OFFSET -2.665105 0.000000 0.000000
                                        CHANNELS 3 Zrotation Xrotation Yrotation
                                        End Site
                                        {
                                            OFFSET -2.367595 0.000000 0.000000
                                        }
                                    }
                                }
                            }
                            JOINT RightHandIndex1
                            {
                                OFFSET -7.800290 0.000000 3.033446
                                CHANNELS 3 Zrotation Xrotation Yrotation
                                JOINT RightHandIndex2
                                {
                                    OFFSET -4.441842 0.000000 0.000000
                                    CHANNELS 3 Zrotation Xrotation Yrotation
                                    JOINT RightHandIndex3
                                    {
                                        OFFSET -2.220921 0.000000 0.000000
                                        CHANNELS 3 Zrotation Xrotation Yrotation
                                        End Site
                                        {
                                            OFFSET -1.972996 0.000000 0.000000
                                        }
                                    }
                                }
                            }
                            JOINT RightHandMiddle1
                            {
                                OFFSET -7.800290 0.000000 1.005371
                                CHANNELS 3 Zrotation Xrotation Yrotation
                                JOINT RightHandMiddle2
                                {
                                    OFFSET -4.886026 0.000000 0.000000
                                    CHANNELS 3 Zrotation Xrotation Yrotation
                                    JOINT RightHandMiddle3
                                    {
                                        OFFSET -2.665105 0.000000 0.000000
                                        CHANNELS 3 Zrotation Xrotation Yrotation
                                        End Site
                                        {
                                            OFFSET -2.367595 0.000000 0.000000
                                        }
                                    }
                                }
                            }
                            JOINT RightHandRing1
                            {
                                OFFSET -7.366940 0.000000 -1.005371
                                CHANNELS 3 Zrotation Xrotation Yrotation
                                JOINT RightHandRing2
                                {
                                    OFFSET -4.441842 0.000000 0.000000
                                    CHANNELS 3 Zrotation Xrotation Yrotation
                                    JOINT RightHandRing3
                                    {
                                        OFFSET -2.220921 0.000000 0.000000
                                        CHANNELS 3 Zrotation Xrotation Yrotation
                                        End Site
                                        {
                                            OFFSET -1.972996 0.000000 0.000000
                                        }
                                    }
                                }
                            }
                            JOINT RightHandPinky1
                            {
                                OFFSET -6.933591 0.000000 -3.033446
                                CHANNELS 3 Zrotation Xrotation Yrotation
                                JOINT RightHandPinky2
                                {
                                    OFFSET -3.553473 0.000000 0.000000
                                    CHANNELS 3 Zrotation Xrotation Yrotation
                                    JOINT RightHandPinky3
                                    {
                                        OFFSET -1.776737 0.000000 0.000000
                                        CHANNELS 3 Zrotation Xrotation Yrotation
                                        End Site
                                        {
                                            OFFSET -1.578397 0.000000 0.000000
                                        }
                                    }
                                }
                            }
                        }
                    }
                }
            }
        }
    }
    JOINT LeftUpLeg
    {
        OFFSET 8.883684 0.000000 0.000000
        CHANNELS 3 Zrotation Xrotation Yrotation
        JOINT LeftLeg
        {
            OFFSET -0.000000 -38.184189 0.000000
            CHANNELS 3 Zrotation Xrotation Yrotation
            JOINT LeftFoot
            {
                OFFSET -0.000000 -35.840691 0.000000
                CHANNELS 3 Zrotation Xrotation Yrotation
                JOINT LeftToeBase
                {
                    OFFSET -0.000000 -5.774395 13.325527
                    CHANNELS 3 Zrotation Xrotation Yrotation
                    End Site
                    {
                        OFFSET -0.000000 0.000000 3.553473
                    }
                }
            }
        }
    }
    JOINT RightUpLeg
    {
        OFFSET -8.883684 0.000000 0.000000
        CHANNELS 3 Zrotation Xrotation Yrotation
        JOINT RightLeg
        {
            OFFSET -0.000000 -38.184189 0.000000
            CHANNELS 3 Zrotation Xrotation Yrotation
            JOINT RightFoot
            {
                OFFSET -0.000000 -35.840691 0.000000
                CHANNELS 3 Zrotation Xrotation Yrotation
                JOINT RightToeBase
                {
                    OFFSET -0.000000 -5.774395 13.325527
                    CHANNELS 3 Zrotation Xrotation Yrotation
                    End Site
                    {
                        OFFSET -0.000000 0.000000 3.553473
                    }
                }
            }
        }
    }
}
MOTION
Frames:    4
Frame Time:    0.008333
0.356017    81.131996    113.661148    1.530703    -1.952223    -3.733079    1.036703    -2.773616    0.222483    -3.394023    9.431078    0.345458    3.551661    -3.577466    -1.891166    -1.643361    0.930349    -1.368536    1.808663    8.347783    -10.132018    -79.178635    37.682007    -8.699121    9.238901    -8.180156    0.307683    -13.094918    -40.547958    -8.407972    5.377842    0.138133    6.363382    -0.000000    0.000000    4.557662    -0.000000    0.000000    9.115324    -3.861294    0.170010    -2.517245    -7.730059    0.000000    0.000000    -3.865029    0.000000    0.000000    -11.843130    -0.892078    1.408665    -23.738695    0.000000    0.000000    -11.869350    0.000000    0.000000    -19.739325    -2.486382    5.151796    -39.747337    0.000000    0.000000    -19.873669    0.000000    0.000000    -27.764856    -4.647098    8.748812    -56.241085    0.000000    0.000000    -28.120539    0.000000    0.000000    -1.616526    -0.596253    3.584038    87.864723    53.697052    -5.170789    -5.263944    -19.782787    5.398284    15.876073    -53.576416    8.416131    -1.839356    -0.554326    -0.449328    0.000000    0.000000    -0.499000    0.000000    0.000000    -0.998000    8.145675    0.000000    -0.000000    16.291349    0.000000    -0.000000    8.145675    0.000000    -0.000000    16.033869    0.000000    -0.000000    32.067734    0.000000    -0.000000    16.033869    0.000000    -0.000000    23.922062    0.000000    -0.000000    47.844124    0.000000    -0.000000    23.922062    0.000000    -0.000000    32.049294    0.000000    -0.000000    64.098587    0.000000    -0.000000    32.049294    0.000000    -0.000000    -2.934158    2.068434    -0.559163    -0.879576    2.396751    -0.986104    1.855159    -2.485093    8.426939    0.117972    0.832260    -0.015861    -2.256290    2.048058    3.233973    2.096550    2.108234    1.029404    -2.751971    -2.348136    -4.069876    0.041349    -0.291794    -0.059299    
0.358868    81.132927    113.662788    1.530850    -1.939060    -3.725270    1.029951    -2.738393    0.224215    -3.374771    9.358458    0.342564    3.552978    -3.583978    -1.880172    -1.650569    0.959977    -1.355824    1.812211    8.355782    -10.129906    -79.194489    37.710999    -8.700526    9.242812    -8.218258    0.317687    -13.129843    -40.533508    -8.413319    5.369071    0.152581    6.374315    -0.000000    0.000000    4.571863    -0.000000    0.000000    9.143724    -3.865434    0.166890    -2.468460    -7.738060    0.000000    0.000000    -3.869030    0.000000    0.000000    -11.847851    -0.903401    1.459259    -23.749783    0.000000    0.000000    -11.874893    0.000000    0.000000    -19.744093    -2.506099    5.203066    -39.761497    0.000000    0.000000    -19.880751    0.000000    0.000000    -27.769270    -4.675462    8.799645    -56.258415    0.000000    0.000000    -28.129213    0.000000    0.000000    -1.621107    -0.586779    3.583970    87.874702    53.696117    -5.195523    -5.268757    -19.773657    5.399841    15.860257    -53.560474    8.382539    -1.829701    -0.555597    -0.440113    0.000000    0.000000    -0.490716    0.000000    0.000000    -0.981432    8.156514    0.000000    -0.000000    16.313028    0.000000    -0.000000    8.156514    0.000000    -0.000000    16.045059    0.000000    -0.000000    32.090111    0.000000    -0.000000    16.045059    0.000000    -0.000000    23.933601    0.000000    -0.000000    47.867207    0.000000    -0.000000    23.933601    0.000000    -0.000000    32.061192    0.000000    -0.000000    64.122383    0.000000    -0.000000    32.061192    0.000000    -0.000000    -2.936707    2.061948    -0.561094    -0.876358    2.383322    -0.999667    1.856226    -2.477689    8.432428    0.116360    0.830478    -0.012364    -2.258574    2.037874    3.219619    2.098391    2.107054    1.044646    -2.749291    -2.348782    -4.078715    0.044195    -0.298788    -0.063890    
0.361417    81.133667    113.664696    1.530125    -1.927814    -3.716814    1.023373    -2.701790    0.226279    -3.355062    9.287085    0.340031    3.554358    -3.592033    -1.869541    -1.657219    0.989564    -1.343590    1.815738    8.361828    -10.129473    -79.210983    37.738338    -8.700588    9.245501    -8.253426    0.327016    -13.164701    -40.517807    -8.416349    5.363337    0.163930    6.384142    -0.000000    0.000000    4.584589    -0.000000    0.000000    9.169177    -3.865204    0.163981    -2.425624    -7.737351    0.000000    0.000000    -3.868676    0.000000    0.000000    -11.849381    -0.912419    1.501103    -23.754177    0.000000    0.000000    -11.877091    0.000000    0.000000    -19.747055    -2.521133    5.243059    -39.771000    0.000000    0.000000    -19.885506    0.000000    0.000000    -27.773499    -4.696450    8.836881    -56.273186    0.000000    0.000000    -28.136593    0.000000    0.000000    -1.626360    -0.577287    3.583774    87.887398    53.694225    -5.222099    -5.275204    -19.767904    5.403443    15.839596    -53.542480    8.348565    -1.819332    -0.557154    -0.429894    0.000000    0.000000    -0.481091    0.000000    0.000000    -0.962182    8.166111    0.000000    -0.000000    16.332228    0.000000    -0.000000    8.166111    0.000000    -0.000000    16.056192    0.000000    -0.000000    32.112392    0.000000    -0.000000    16.056192    0.000000    -0.000000    23.946280    0.000000    -0.000000    47.892559    0.000000    -0.000000    23.946280    0.000000    -0.000000    32.075451    0.000000    -0.000000    64.150902    0.000000    -0.000000    32.075451    0.000000    -0.000000    -2.937796    2.057156    -0.562904    -0.874229    2.371256    -1.007247    1.857064    -2.471674    8.432783    0.116131    0.829645    -0.012067    -2.259600    2.030634    3.207886    2.099665    2.104571    1.056566    -2.747242    -2.349235    -4.087383    0.044565    -0.301889    -0.064404    
0.363466    81.134186    113.667236    1.527998    -1.920791    -3.707141    1.017175    -2.662476    0.229372    -3.335178    9.218689    0.337190    3.556516    -3.602957    -1.859346    -1.662882    1.018925    -1.332023    1.819638    8.365478    -10.131430    -79.227417    37.760906    -8.700024    9.245572    -8.281804    0.335389    -13.197524    -40.500240    -8.415750    5.360706    0.171301    6.391701    -0.000000    0.000000    4.594518    -0.000000    0.000000    9.189035    -3.860138    0.161497    -2.392072    -7.727019    0.000000    0.000000    -3.863509    0.000000    0.000000    -11.847455    -0.918174    1.530208    -23.751219    0.000000    0.000000    -11.875607    0.000000    0.000000    -19.748207    -2.529716    5.267231    -39.775417    0.000000    0.000000    -19.887705    0.000000    0.000000    -27.777885    -4.707409    8.855511    -56.285191    0.000000    0.000000    -28.142597    0.000000    0.000000    -1.632558    -0.567891    3.583252    87.903801    53.691544    -5.250721    -5.283491    -19.767017    5.409756    15.815176    -53.523335    8.317545    -1.807785    -0.558992    -0.418339    0.000000    0.000000    -0.469647    0.000000    0.000000    -0.939294    8.172529    0.000000    -0.000000    16.345057    0.000000    -0.000000    8.172529    0.000000    -0.000000    16.066160    0.000000    -0.000000    32.132332    0.000000    -0.000000    16.066160    0.000000    -0.000000    23.959795    0.000000    -0.000000    47.919601    0.000000    -0.000000    23.959795    0.000000    -0.000000    32.092632    0.000000    -0.000000    64.185265    0.000000    -0.000000    32.092632    0.000000    -0.000000    -2.936575    2.056848    -0.564980    -0.873948    2.360155    -1.007164    1.858173    -2.466918    8.426183    0.117130    0.829488    -0.014663    -2.258513    2.029752    3.201650    2.099853    2.099190    1.059198    -2.745857    -2.349130    -4.093271    0.043357    -0.302748    -0.062309    
